<mxfile host="app.diagrams.net" modified="2024-02-29T16:20:28.560Z" agent="Mozilla/5.0 (Macintosh; Intel Mac OS X 10.14; rv:109.0) Gecko/20100101 Firefox/115.0" etag="Kg2JixKbgR1yGCcHbwls" version="24.0.0" type="github">
  <diagram name="Page-1" id="JrUIfgVRSp0UM8ETx353">
    <mxGraphModel dx="1658" dy="619" grid="1" gridSize="10" guides="1" tooltips="1" connect="1" arrows="1" fold="1" page="1" pageScale="1" pageWidth="827" pageHeight="1169" math="0" shadow="0">
      <root>
        <mxCell id="0" />
        <mxCell id="1" parent="0" />
        <mxCell id="n7JFr-5hj81nrRRgK0mp-4" value="&lt;div&gt;s&#39;authentifier (email, mdp)&lt;/div&gt;&lt;div&gt;&lt;br&gt;&lt;/div&gt;" style="ellipse;whiteSpace=wrap;html=1;" parent="1" vertex="1">
          <mxGeometry x="110" y="170" width="140" height="50" as="geometry" />
        </mxCell>
        <mxCell id="n7JFr-5hj81nrRRgK0mp-5" value="Voir les réservations" style="ellipse;whiteSpace=wrap;html=1;" parent="1" vertex="1">
          <mxGeometry x="370" y="170" width="140" height="50" as="geometry" />
        </mxCell>
        <mxCell id="n7JFr-5hj81nrRRgK0mp-6" value="Voir le détail d&#39;une réservation" style="ellipse;whiteSpace=wrap;html=1;" parent="1" vertex="1">
          <mxGeometry x="610" y="170" width="140" height="50" as="geometry" />
        </mxCell>
        <mxCell id="n7JFr-5hj81nrRRgK0mp-7" value="Valider une réservation" style="ellipse;whiteSpace=wrap;html=1;" parent="1" vertex="1">
          <mxGeometry x="370" y="230" width="140" height="50" as="geometry" />
        </mxCell>
        <mxCell id="n7JFr-5hj81nrRRgK0mp-8" value="Refuser une réservation" style="ellipse;whiteSpace=wrap;html=1;" parent="1" vertex="1">
          <mxGeometry x="370" y="280" width="140" height="50" as="geometry" />
        </mxCell>
        <mxCell id="n7JFr-5hj81nrRRgK0mp-9" value="Traiter une réservation" style="ellipse;whiteSpace=wrap;html=1;" parent="1" vertex="1">
          <mxGeometry x="110" y="250" width="140" height="50" as="geometry" />
        </mxCell>
        <mxCell id="n7JFr-5hj81nrRRgK0mp-14" value="&lt;div&gt;Concessionaire&lt;/div&gt;&lt;div&gt;&lt;br&gt;&lt;/div&gt;" style="shape=umlActor;verticalLabelPosition=bottom;verticalAlign=top;html=1;" parent="1" vertex="1">
          <mxGeometry x="10" y="280" width="30" height="60" as="geometry" />
        </mxCell>
        <mxCell id="n7JFr-5hj81nrRRgK0mp-15" value="&amp;lt;&amp;lt;includes&amp;gt;&amp;gt;" style="endArrow=open;endSize=12;dashed=1;html=1;rounded=0;exitX=1;exitY=0.5;exitDx=0;exitDy=0;" parent="1" source="n7JFr-5hj81nrRRgK0mp-9" edge="1">
          <mxGeometry width="160" relative="1" as="geometry">
            <mxPoint x="210" y="200" as="sourcePoint" />
            <mxPoint x="370" y="200" as="targetPoint" />
          </mxGeometry>
        </mxCell>
        <mxCell id="n7JFr-5hj81nrRRgK0mp-18" value="&amp;lt;&amp;lt;includes&amp;gt;&amp;gt;" style="endArrow=open;endSize=12;dashed=1;html=1;rounded=0;exitX=1;exitY=0.5;exitDx=0;exitDy=0;" parent="1" source="n7JFr-5hj81nrRRgK0mp-9" edge="1">
          <mxGeometry width="160" relative="1" as="geometry">
            <mxPoint x="210" y="260" as="sourcePoint" />
            <mxPoint x="370" y="260" as="targetPoint" />
            <mxPoint as="offset" />
          </mxGeometry>
        </mxCell>
        <mxCell id="n7JFr-5hj81nrRRgK0mp-19" value="&amp;lt;&amp;lt;includes&amp;gt;&amp;gt;" style="endArrow=open;endSize=12;dashed=1;html=1;rounded=0;exitX=1;exitY=0.5;exitDx=0;exitDy=0;" parent="1" source="n7JFr-5hj81nrRRgK0mp-9" edge="1">
          <mxGeometry width="160" relative="1" as="geometry">
            <mxPoint x="210" y="309.09000000000003" as="sourcePoint" />
            <mxPoint x="370" y="309.09000000000003" as="targetPoint" />
          </mxGeometry>
        </mxCell>
        <mxCell id="n7JFr-5hj81nrRRgK0mp-22" value="&amp;lt;&amp;lt; extends &amp;gt;&amp;gt;" style="endArrow=open;endSize=12;dashed=1;html=1;rounded=0;" parent="1" edge="1">
          <mxGeometry width="160" relative="1" as="geometry">
            <mxPoint x="510" y="194" as="sourcePoint" />
            <mxPoint x="610" y="194.08999999999997" as="targetPoint" />
            <Array as="points">
              <mxPoint x="530" y="194.08999999999997" />
            </Array>
          </mxGeometry>
        </mxCell>
        <mxCell id="n7JFr-5hj81nrRRgK0mp-24" value="" style="endArrow=none;html=1;rounded=0;exitX=0.5;exitY=0.5;exitDx=0;exitDy=0;exitPerimeter=0;entryX=0;entryY=0.5;entryDx=0;entryDy=0;" parent="1" source="n7JFr-5hj81nrRRgK0mp-14" target="n7JFr-5hj81nrRRgK0mp-4" edge="1">
          <mxGeometry width="50" height="50" relative="1" as="geometry">
            <mxPoint x="90" y="260" as="sourcePoint" />
            <mxPoint x="140" y="210" as="targetPoint" />
          </mxGeometry>
        </mxCell>
        <mxCell id="n7JFr-5hj81nrRRgK0mp-25" value="" style="endArrow=none;html=1;rounded=0;exitX=0.5;exitY=0.5;exitDx=0;exitDy=0;exitPerimeter=0;" parent="1" source="n7JFr-5hj81nrRRgK0mp-14" edge="1">
          <mxGeometry width="50" height="50" relative="1" as="geometry">
            <mxPoint x="60" y="330" as="sourcePoint" />
            <mxPoint x="110" y="280" as="targetPoint" />
          </mxGeometry>
        </mxCell>
        <mxCell id="n7JFr-5hj81nrRRgK0mp-26" value="" style="endArrow=none;html=1;rounded=0;exitX=0.5;exitY=0.5;exitDx=0;exitDy=0;exitPerimeter=0;entryX=0;entryY=0.5;entryDx=0;entryDy=0;" parent="1" source="n7JFr-5hj81nrRRgK0mp-14" target="n7JFr-5hj81nrRRgK0mp-10" edge="1">
          <mxGeometry width="50" height="50" relative="1" as="geometry">
            <mxPoint x="60" y="420" as="sourcePoint" />
            <mxPoint x="110" y="370" as="targetPoint" />
          </mxGeometry>
        </mxCell>
        <mxCell id="n7JFr-5hj81nrRRgK0mp-35" value="" style="swimlane;startSize=0;" parent="1" vertex="1">
          <mxGeometry x="54" y="130" width="720" height="350" as="geometry" />
        </mxCell>
        <mxCell id="n7JFr-5hj81nrRRgK0mp-10" value="Se déconnecter" style="ellipse;whiteSpace=wrap;html=1;" parent="n7JFr-5hj81nrRRgK0mp-35" vertex="1">
          <mxGeometry x="50" y="290" width="140" height="50" as="geometry" />
        </mxCell>
        <mxCell id="n7JFr-5hj81nrRRgK0mp-38" value="Supprimer un client" style="ellipse;whiteSpace=wrap;html=1;" parent="n7JFr-5hj81nrRRgK0mp-35" vertex="1">
          <mxGeometry x="50" y="230" width="140" height="50" as="geometry" />
        </mxCell>
        <mxCell id="n7JFr-5hj81nrRRgK0mp-39" value="" style="endArrow=none;html=1;rounded=0;exitX=0.5;exitY=0.5;exitDx=0;exitDy=0;exitPerimeter=0;" parent="n7JFr-5hj81nrRRgK0mp-35" source="n7JFr-5hj81nrRRgK0mp-14" edge="1">
          <mxGeometry width="50" height="50" relative="1" as="geometry">
            <mxPoint y="310" as="sourcePoint" />
            <mxPoint x="50" y="260" as="targetPoint" />
          </mxGeometry>
        </mxCell>
      </root>
    </mxGraphModel>
  </diagram>
</mxfile>
